<?xml version="1.0" encoding="utf-8"?>
<!-- Generator: Adobe Illustrator 22.0.1, SVG Export Plug-In . SVG Version: 6.00 Build 0)  -->
<svg version="1.1" xmlns="http://www.w3.org/2000/svg" xmlns:xlink="http://www.w3.org/1999/xlink" x="0px" y="0px"
	 viewBox="0 0 404.5 311.1" style="enable-background:new 0 0 404.5 311.1;" xml:space="preserve">
<style type="text/css">
	.st0{display:none;}
	.st1{display:inline;fill:none;stroke:#000000;stroke-width:10;stroke-miterlimit:10;}
	.st2{display:inline;fill:#FFFFFF;stroke:#000000;stroke-width:10;stroke-miterlimit:10;}
	.st3{fill:none;stroke:#000000;stroke-width:10;stroke-miterlimit:10;}
</style>
<g id="Camada_1" class="st0">
	<line class="st1" x1="-37.6" y1="-6.3" x2="456.5" y2="-6.3"/>
	<line class="st1" x1="-37.6" y1="54.1" x2="456.5" y2="54.1"/>
	<line class="st1" x1="-37.6" y1="120" x2="456.5" y2="120"/>
	<line class="st1" x1="-37.6" y1="185.9" x2="456.5" y2="185.9"/>
	<line class="st1" x1="-37.6" y1="251.8" x2="456.5" y2="251.8"/>
	<line class="st1" x1="-37.6" y1="317.7" x2="319.3" y2="317.7"/>
</g>
<g id="Camada_2" class="st0">
	<line class="st1" x1="-37.8" y1="-6.3" x2="456.1" y2="-6.3"/>
	<line class="st1" x1="-37.8" y1="54.1" x2="318.9" y2="54.1"/>
	<line class="st1" x1="-37.8" y1="120" x2="456.1" y2="120"/>
	<line class="st1" x1="-37.8" y1="185.8" x2="264" y2="185.8"/>
	<line class="st1" x1="-37.8" y1="251.7" x2="456.1" y2="251.7"/>
	<line class="st1" x1="-37.8" y1="317.5" x2="318.9" y2="317.5"/>
</g>
<g id="Camada_3" class="st0">
	<line class="st1" x1="-37.3" y1="-6.2" x2="455.6" y2="-6.2"/>
	<line class="st1" x1="28.4" y1="54.1" x2="384.4" y2="54.1"/>
	<line class="st1" x1="-37.3" y1="119.8" x2="455.6" y2="119.8"/>
	<line class="st1" x1="50.3" y1="185.5" x2="351.5" y2="185.5"/>
	<line class="st1" x1="-37.3" y1="251.2" x2="455.6" y2="251.2"/>
	<line class="st1" x1="28.4" y1="317" x2="384.4" y2="317"/>
</g>
<g id="Camada_4" class="st0">
	<rect x="-36.1" y="8.7" class="st2" width="490.5" height="294.3"/>
	<polyline class="st2" points="-14.3,299.6 93.9,177.5 185.4,299.6 324.2,77.6 443.5,299.6 	"/>
	<circle class="st2" cx="132.8" cy="79.6" r="32.7"/>
</g>
<g id="Camada_5">
	<g>
		<path d="M143.5,109.2H71.9v66.5h79.9v20H48.1V11.3h99.6v20H71.9v58.3h71.7V109.2z"/>
	</g>
	<g>
		<path d="M326.2,170.3l14.3,21.6c3.7,5.6,6.9,10.8,10.2,16.4h0.6c3.3-6,6.6-11.2,10-16.6l14.1-21.4h19.7l-34.3,48.6l35.3,51.9
			h-20.8l-14.8-22.6c-3.9-5.8-7.3-11.4-10.8-17.5h-0.4c-3.3,6-6.9,11.4-10.6,17.5l-14.5,22.6h-20.2l35.7-51.3l-34.1-49.2H326.2z"/>
	</g>
	<line class="st3" x1="8.3" y1="303.3" x2="392.3" y2="78.8"/>
</g>
</svg>
