<?xml version="1.0" encoding="utf-8"?>
<!-- Generator: Adobe Illustrator 22.0.1, SVG Export Plug-In . SVG Version: 6.00 Build 0)  -->
<svg version="1.1" xmlns="http://www.w3.org/2000/svg" xmlns:xlink="http://www.w3.org/1999/xlink" x="0px" y="0px"
	 viewBox="0 0 509.4 311.1" style="enable-background:new 0 0 509.4 311.1;" xml:space="preserve">
<style type="text/css">
	.st0{display:none;}
	.st1{display:inline;fill:none;stroke:#000000;stroke-width:10;stroke-miterlimit:10;}
	.st2{fill:#FFFFFF;stroke:#000000;stroke-width:10;stroke-miterlimit:10;}
</style>
<g id="Camada_1" class="st0">
	<line class="st1" x1="7.4" y1="-6.3" x2="501.6" y2="-6.3"/>
	<line class="st1" x1="7.4" y1="54.1" x2="501.6" y2="54.1"/>
	<line class="st1" x1="7.4" y1="120" x2="501.6" y2="120"/>
	<line class="st1" x1="7.4" y1="185.9" x2="501.6" y2="185.9"/>
	<line class="st1" x1="7.4" y1="251.8" x2="501.6" y2="251.8"/>
	<line class="st1" x1="7.4" y1="317.7" x2="364.3" y2="317.7"/>
</g>
<g id="Camada_2" class="st0">
	<line class="st1" x1="7.2" y1="-6.3" x2="501.2" y2="-6.3"/>
	<line class="st1" x1="7.2" y1="54.1" x2="364" y2="54.1"/>
	<line class="st1" x1="7.2" y1="120" x2="501.2" y2="120"/>
	<line class="st1" x1="7.2" y1="185.8" x2="309.1" y2="185.8"/>
	<line class="st1" x1="7.2" y1="251.7" x2="501.2" y2="251.7"/>
	<line class="st1" x1="7.2" y1="317.5" x2="364" y2="317.5"/>
</g>
<g id="Camada_3" class="st0">
	<line class="st1" x1="7.7" y1="-6.2" x2="500.7" y2="-6.2"/>
	<line class="st1" x1="73.5" y1="54.1" x2="429.5" y2="54.1"/>
	<line class="st1" x1="7.7" y1="119.8" x2="500.7" y2="119.8"/>
	<line class="st1" x1="95.4" y1="185.5" x2="396.6" y2="185.5"/>
	<line class="st1" x1="7.7" y1="251.2" x2="500.7" y2="251.2"/>
	<line class="st1" x1="73.5" y1="317" x2="429.5" y2="317"/>
</g>
<g id="Camada_4">
	<rect x="9" y="8.7" class="st2" width="490.5" height="294.3"/>
	<polyline class="st2" points="30.8,299.6 139,177.5 230.5,299.6 369.2,77.6 488.6,299.6 	"/>
	<circle class="st2" cx="177.9" cy="79.6" r="32.7"/>
</g>
</svg>
