<?xml version="1.0" encoding="utf-8"?>
<!-- Generator: Adobe Illustrator 22.0.1, SVG Export Plug-In . SVG Version: 6.00 Build 0)  -->
<svg version="1.1" xmlns="http://www.w3.org/2000/svg" xmlns:xlink="http://www.w3.org/1999/xlink" x="0px" y="0px"
	 viewBox="0 0 500 500" style="enable-background:new 0 0 500 500;" xml:space="preserve">
<style type="text/css">
	.st0{clip-path:url(#SVGID_2_);}
	.st1{fill:#AB493D;}
	.st2{fill:#FFA195;}
</style>
<g id="Camada_1">
	<g>
		<defs>
			<circle id="SVGID_1_" cx="250.5" cy="250.5" r="242.5"/>
		</defs>
		<clipPath id="SVGID_2_">
			<use xlink:href="#SVGID_1_"  style="overflow:visible;"/>
		</clipPath>
		<g class="st0">
			<path class="st1" d="M250.5,489c-63.7,0-123.6-24.8-168.6-69.9S12,314.2,12,250.5c0-63.7,24.8-123.6,69.9-168.6
				S186.8,12,250.5,12c63.7,0,123.6,24.8,168.6,69.9S489,186.8,489,250.5c0,63.7-24.8,123.6-69.9,168.6S314.2,489,250.5,489z"/>
			<path class="st2" d="M250.5,16c31.7,0,62.4,6.2,91.3,18.4c27.9,11.8,53,28.7,74.5,50.3c21.5,21.5,38.4,46.6,50.3,74.5
				c12.2,28.9,18.4,59.6,18.4,91.3s-6.2,62.4-18.4,91.3c-11.8,27.9-28.7,53-50.3,74.5c-21.5,21.5-46.6,38.4-74.5,50.3
				c-28.9,12.2-59.6,18.4-91.3,18.4s-62.4-6.2-91.3-18.4c-27.9-11.8-53-28.7-74.5-50.3c-21.5-21.5-38.4-46.6-50.3-74.5
				C22.2,312.9,16,282.2,16,250.5s6.2-62.4,18.4-91.3c11.8-27.9,28.7-53,50.3-74.5c21.5-21.5,46.6-38.4,74.5-50.3
				C188.1,22.2,218.8,16,250.5,16 M250.5,8C116.6,8,8,116.6,8,250.5S116.6,493,250.5,493S493,384.4,493,250.5S384.4,8,250.5,8
				L250.5,8z"/>
		</g>
		<g class="st0">
			<path class="st2" d="M250.5,92.6c28.5,0,55.4,11.1,75.6,31.3c20.2,20.2,31.3,47,31.3,75.6s-11.1,55.4-31.3,75.6
				c-20.2,20.2-47,31.3-75.6,31.3s-55.4-11.1-75.6-31.3c-20.2-20.2-31.3-47-31.3-75.6s11.1-55.4,31.3-75.6
				C195.1,103.7,222,92.6,250.5,92.6 M250.5,84.6c-63.4,0-114.9,51.4-114.9,114.9s51.4,114.9,114.9,114.9s114.9-51.4,114.9-114.9
				S313.9,84.6,250.5,84.6L250.5,84.6z"/>
		</g>
		<g class="st0">
			<path class="st2" d="M304.9,314.8c34.3,0,66.7,13.5,91.2,37.9c24.5,24.5,37.9,56.8,37.9,91.2V476c0,34.3-13.5,66.7-37.9,91.2
				c-24.5,24.5-56.8,37.9-91.2,37.9H196.1c-34.3,0-66.7-13.5-91.2-37.9c-24.5-24.5-37.9-56.8-37.9-91.2v-32.2
				c0-34.3,13.5-66.7,37.9-91.2s56.8-37.9,91.2-37.9H304.9 M304.9,306.8H196.1c-75.4,0-137.1,61.7-137.1,137.1V476
				c0,75.4,61.7,137.1,137.1,137.1h108.7c75.4,0,137.1-61.7,137.1-137.1v-32.2C441.9,368.5,380.3,306.8,304.9,306.8L304.9,306.8z"/>
		</g>
	</g>
</g>
<g id="Camada_2">
</g>
</svg>
