<?xml version="1.0" encoding="utf-8"?>
<!-- Generator: Adobe Illustrator 22.0.1, SVG Export Plug-In . SVG Version: 6.00 Build 0)  -->
<svg version="1.1" xmlns="http://www.w3.org/2000/svg" xmlns:xlink="http://www.w3.org/1999/xlink" x="0px" y="0px"
	 viewBox="0 0 467.8 287.2" style="enable-background:new 0 0 467.8 287.2;" xml:space="preserve">
<style type="text/css">
	.st0{display:none;}
	.st1{display:inline;fill:none;stroke:#000000;stroke-width:10;stroke-miterlimit:10;}
	.st2{display:inline;fill:#FFFFFF;stroke:#000000;stroke-width:10;stroke-miterlimit:10;}
	.st3{display:inline;}
	.st4{stroke:#000000;stroke-width:10;stroke-miterlimit:10;}
</style>
<g id="Camada_1" class="st0">
	<line class="st1" x1="5.5" y1="-20.3" x2="499.7" y2="-20.3"/>
	<line class="st1" x1="5.5" y1="40.1" x2="499.7" y2="40.1"/>
	<line class="st1" x1="5.5" y1="106" x2="499.7" y2="106"/>
	<line class="st1" x1="5.5" y1="171.9" x2="499.7" y2="171.9"/>
	<line class="st1" x1="5.5" y1="237.8" x2="499.7" y2="237.8"/>
	<line class="st1" x1="5.5" y1="303.7" x2="362.4" y2="303.7"/>
</g>
<g id="Camada_2" class="st0">
	<line class="st1" x1="5.3" y1="-20.3" x2="499.3" y2="-20.3"/>
	<line class="st1" x1="5.3" y1="40.1" x2="362.1" y2="40.1"/>
	<line class="st1" x1="5.3" y1="105.9" x2="499.3" y2="105.9"/>
	<line class="st1" x1="5.3" y1="171.8" x2="307.2" y2="171.8"/>
	<line class="st1" x1="5.3" y1="237.7" x2="499.3" y2="237.7"/>
	<line class="st1" x1="5.3" y1="303.5" x2="362.1" y2="303.5"/>
</g>
<g id="Camada_3" class="st0">
	<line class="st1" x1="5.8" y1="-20.2" x2="498.8" y2="-20.2"/>
	<line class="st1" x1="71.6" y1="40" x2="427.6" y2="40"/>
	<line class="st1" x1="5.8" y1="105.8" x2="498.8" y2="105.8"/>
	<line class="st1" x1="93.5" y1="171.5" x2="394.7" y2="171.5"/>
	<line class="st1" x1="5.8" y1="237.2" x2="498.8" y2="237.2"/>
	<line class="st1" x1="71.6" y1="303" x2="427.6" y2="303"/>
</g>
<g id="Camada_4" class="st0">
	<rect x="7.1" y="-5.3" class="st2" width="490.5" height="294.3"/>
	<polyline class="st2" points="28.9,285.5 137.1,163.5 228.6,285.5 367.3,63.6 486.7,285.5 	"/>
	<circle class="st2" cx="176" cy="65.6" r="32.7"/>
</g>
<g id="Camada_5" class="st0">
	<g class="st3">
		<path d="M186.7,95.2h-71.7v66.5h79.9v20H91.3V-2.7h99.6v20h-75.8v58.3h71.7V95.2z"/>
	</g>
	<g class="st3">
		<path d="M369.3,156.3l14.3,21.6c3.7,5.6,6.9,10.8,10.2,16.4h0.6c3.3-6,6.6-11.2,10-16.6l14.1-21.4h19.7L404,204.9l35.3,51.9h-20.8
			l-14.8-22.6c-3.9-5.8-7.3-11.4-10.8-17.5h-0.4c-3.3,6-6.9,11.4-10.6,17.5l-14.5,22.6h-20.2l35.7-51.3L349,156.3H369.3z"/>
	</g>
	<line class="st1" x1="51.4" y1="289.3" x2="435.4" y2="64.8"/>
</g>
<g id="Camada_6" class="st0">
	<g class="st3">
		<path class="st4" d="M166.6,13.7c15.1-3.2,38.9-5.6,63.2-5.6c34.6,0,56.8,6,73.5,19.5c13.9,10.3,22.2,26.2,22.2,47.3
			c0,25.8-17.1,48.5-45.3,58.8v0.8c25.4,6.4,55.2,27.4,55.2,67.1c0,23-9.1,40.5-22.6,53.6c-18.7,17.1-48.9,25-92.6,25
			c-23.8,0-42.1-1.6-53.6-3.2V13.7z M201.2,123.4h31.4c36.6,0,58-19.1,58-44.9c0-31.4-23.8-43.7-58.8-43.7c-15.9,0-25,1.2-30.6,2.4
			V123.4z M201.2,251.7c6.8,1.2,16.7,1.6,29,1.6c35.8,0,68.7-13.1,68.7-52c0-36.6-31.4-51.6-69.1-51.6h-28.6V251.7z"/>
	</g>
</g>
<g id="Camada_7">
	<g>
		<path d="M89.1,36.2H4.8V5.8h205.3v30.4h-84.7v246.8H89.1V36.2z"/>
	</g>
	<g>
		<path d="M341.4,36.2h-84.3V5.8h205.3v30.4h-84.8v246.8h-36.2V36.2z"/>
	</g>
</g>
</svg>
